<?xml version="1.0" standalone="no"?>
<!DOCTYPE svg PUBLIC "-//W3C//DTD SVG 20010904//EN"
 "http://www.w3.org/TR/2001/REC-SVG-20010904/DTD/svg10.dtd">
<svg version="1.0" xmlns="http://www.w3.org/2000/svg"
 width="256.000000pt" height="256.000000pt" viewBox="0 0 256.000000 256.000000"
 preserveAspectRatio="xMidYMid meet">

<g transform="translate(0.000000,256.000000) scale(0.100000,-0.100000)"
fill="#000000" stroke="none">
<path d="M1280 2210 c0 -11 20 -61 45 -111 44 -87 48 -109 21 -109 -24 0 -151
-69 -193 -104 -102 -88 -194 -308 -137 -330 20 -8 948 -8 968 0 22 8 20 52 -4
125 -28 82 -62 134 -128 195 l-55 52 87 103 c81 98 96 127 70 136 -6 2 -51
-46 -99 -107 -62 -78 -93 -110 -104 -106 -9 3 -47 17 -86 30 -54 20 -90 26
-160 26 l-90 1 -52 109 c-33 71 -57 110 -67 110 -9 0 -16 -9 -16 -20z m64
-366 c9 -8 16 -22 16 -29 0 -17 -38 -45 -62 -45 -15 0 -48 35 -48 52 0 15 33
38 55 38 13 0 31 -7 39 -16z m388 -1 c22 -20 23 -31 1 -55 -21 -24 -55 -23
-78 2 -17 18 -17 21 -1 45 19 29 51 32 78 8z"/>
<path d="M769 1471 l-29 -29 0 -197 0 -197 29 -29 c42 -41 98 -41 140 2 l31
31 0 184 c0 233 -12 264 -105 264 -27 0 -44 -8 -66 -29z"/>
<path d="M2115 1491 c-11 -5 -29 -19 -40 -31 -18 -20 -20 -39 -23 -210 l-3
-188 31 -35 c38 -43 77 -54 119 -32 54 28 61 55 61 245 0 132 -3 178 -15 200
-27 53 -77 72 -130 51z"/>
<path d="M1024 1465 c-15 -23 -16 -61 -9 -389 7 -354 8 -365 29 -385 29 -27
69 -41 122 -41 l44 0 0 -123 c0 -121 0 -124 28 -149 35 -34 74 -44 113 -28 48
20 59 54 59 185 l0 115 75 0 75 0 0 -110 c0 -125 11 -160 60 -185 44 -23 69
-18 106 19 l34 34 0 121 0 121 48 0 c66 0 114 16 143 46 l24 26 3 363 c3 356
2 365 -18 385 -20 20 -30 20 -470 20 l-450 0 -16 -25z m440 -91 c31 -30 8 -69
-36 -62 -26 3 -37 41 -18 64 16 18 35 18 54 -2z m1 -159 c0 -26 -3 -30 -29
-30 -36 0 -56 26 -36 50 8 9 24 15 39 13 22 -2 26 -8 26 -33z m-1 -117 c13
-21 -2 -51 -26 -56 -16 -3 -48 23 -48 38 0 15 32 41 48 38 8 -2 20 -11 26 -20z
m6 -139 c14 -26 -3 -49 -36 -49 -30 0 -51 35 -33 56 17 21 57 17 69 -7z m2
-134 c14 -31 -3 -55 -38 -55 -31 0 -53 42 -34 65 20 24 59 19 72 -10z"/>
</g>
</svg>
